# xmcd CD database file
#
# Track frame offsets:
#	150
#	42303
#	84704
#	128463
#	175077
#	215876
#	257133
#
# Disc length: 3936 seconds
#
# Revision: 4
# Processed by: cddbd v1.5.2PL0 Copyright (c) Steve Scherf et al.
# Submitted via: CDex 1.70beta2
#
DISCID=5f0f5e07
DTITLE=Wolfgang Hohlbein - Dunkel
DYEAR=1999
DGENRE=Hörbuch
TTITLE0=Dunkel 1-01
TTITLE1=Dunkel 1-02
TTITLE2=Dunkel 1-03
TTITLE3=Dunkel 1-04
TTITLE4=Dunkel 1-05
TTITLE5=Dunkel 1-06
TTITLE6=Dunkel 1-07
EXTD=gelesen von Monty Arnold YEAR: 1999
EXTT0=
EXTT1=
EXTT2=
EXTT3=
EXTT4=
EXTT5=
EXTT6=
PLAYORDER=
